<?xml version="1.0" encoding="UTF-8" standalone="no"?>
<!-- Created with Inkscape (http://www.inkscape.org/) -->

<svg
   width="500"
   height="500"
   viewBox="0 0 132.29166 132.29166"
   version="1.1"
   id="svg1"
   sodipodi:docname="BOGSVG2.svg"
   inkscape:version="1.4.2 (f4327f4, 2025-05-13)"
   xmlns:inkscape="http://www.inkscape.org/namespaces/inkscape"
   xmlns:sodipodi="http://sodipodi.sourceforge.net/DTD/sodipodi-0.dtd"
   xmlns="http://www.w3.org/2000/svg"
   xmlns:svg="http://www.w3.org/2000/svg">
  <sodipodi:namedview
     id="namedview1"
     pagecolor="#ffffff"
     bordercolor="#111111"
     borderopacity="1"
     inkscape:showpageshadow="0"
     inkscape:pageopacity="0"
     inkscape:pagecheckerboard="1"
     inkscape:deskcolor="#d1d1d1"
     inkscape:document-units="mm"
     showgrid="false"
     inkscape:zoom="0.76734035"
     inkscape:cx="57.992519"
     inkscape:cy="351.21312"
     inkscape:window-width="1920"
     inkscape:window-height="1009"
     inkscape:window-x="1912"
     inkscape:window-y="-8"
     inkscape:window-maximized="1"
     inkscape:current-layer="svg1" />
  <defs
     id="defs1">
    <linearGradient
       id="paint0_linear_47_2775"
       x1="5.20328"
       y1="50.336201"
       x2="44.310699"
       y2="11.8835"
       gradientUnits="userSpaceOnUse"
       gradientTransform="matrix(0.79374999,0,0,0.79374999,71.366193,112.58095)">
      <stop
         stop-color="#1E92E0"
         id="stop7" />
      <stop
         offset="1"
         stop-color="#27F5FF"
         id="stop8" />
    </linearGradient>
  </defs>
  <g
     id="layer1"
     transform="matrix(2,0,0,2,-119.44791,-212.48812)">
    <path
       fill-rule="evenodd"
       clip-rule="evenodd"
       d="m 101.71864,123.19711 c 0.0642,0.2064 0.0384,0.46926 0.1926,0.61875 0.1542,0.1494 0.41379,0.1278 0.62073,0.192 -0.207,0.0639 -0.47172,0.0381 -0.62073,0.1917 -0.1491,0.1536 -0.1281,0.4125 -0.1926,0.61872 -0.0642,-0.2061 -0.0372,-0.46917 -0.1914,-0.61872 -0.1542,-0.1494 -0.41379,-0.1278 -0.6207,-0.1917 0.207,-0.0639 0.47172,-0.0381 0.6207,-0.192 0.1491,-0.1536 0.1272,-0.41244 0.1914,-0.61875 z m -5.858734,-1.40754 c 0.0807,0.264 0.0474,0.59601 0.243,0.79089 0.1956,0.195 0.52863,0.162 0.7935,0.2424 -0.2649,0.0816 -0.59802,0.0486 -0.7935,0.2433 -0.1956,0.195 -0.1626,0.52689 -0.243,0.79089 -0.0819,-0.264 -0.0486,-0.59601 -0.2442,-0.79089 -0.1956,-0.195 -0.52872,-0.162 -0.7935,-0.2433 0.2649,-0.0804 0.59793,-0.0474 0.7935,-0.2424 0.1956,-0.195 0.1593,-0.52689 0.2412,-0.79089 z m 9.842884,7.78875 c 0.1344,0.43521 0.0798,0.98481 0.40251,1.30659 0.32274,0.32169 0.87417,0.267 1.31079,0.40116 -0.43662,0.1341 -0.98703,0.0795 -1.31079,0.40107 -0.32385,0.32178 -0.2679,0.87138 -0.40251,1.30659 -0.1344,-0.43521 -0.0795,-0.98376 -0.40242,-1.30659 -0.32274,-0.32274 -0.87423,-0.267 -1.31082,-0.40107 0.43659,-0.1341 0.98703,-0.0795 1.31082,-0.40116 0.32385,-0.32178 0.2649,-0.87138 0.39933,-1.30659 z m -28.440454,6.1275 c 0.0795,0.2598 0.0465,0.58674 0.24,0.77859 0.1935,0.1917 0.51729,0.1599 0.78111,0.2394 -0.2607,0.0804 -0.58866,0.0474 -0.78111,0.2391 -0.1923,0.192 -0.1602,0.51564 -0.24,0.77964 -0.0807,-0.2598 -0.0477,-0.58674 -0.24,-0.77964 -0.1923,-0.1929 -0.51729,-0.1587 -0.78213,-0.2391 0.2607,-0.0795 0.58866,-0.0465 0.78213,-0.2394 0.1935,-0.1929 0.1593,-0.5187 0.24,-0.77859 z m 25.748524,1.46742 c -1.63671,-0.88782 -4.862494,-0.009 -7.574104,1.15911 1.80633,-1.63758 4.758994,-2.3037 6.660574,-2.12844 -1.36047,-4.73019 -4.234504,-8.75403 -9.223294,-10.98765 5.74089,1.40868 9.258484,6.65757 10.136824,11.95698 z m -13.421584,3.89286 c 0.6642,-5.50362 -1.40496,-10.91955 -3.67998,-15.71886 1.98435,5.07879 3.4524,10.72467 2.62785,15.80547 z m 20.199094,-2.96886 c -0.1491,0 -0.2946,0.0441 -0.41844,0.1266 -0.1239,0.0825 -0.2205,0.1998 -0.2775,0.33696 -0.057,0.1371 -0.072,0.288 -0.0429,0.43371 0.03,0.1458 0.1008,0.2793 0.2061,0.38439 0.1053,0.105 0.2394,0.1764 0.38568,0.2055 0.1461,0.03 0.2976,0.015 0.43512,-0.0426 0.1377,-0.0567 0.2553,-0.153 0.33798,-0.2766 0.0828,-0.1236 0.1269,-0.2685 0.1269,-0.41712 6e-5,-0.0987 -0.018,-0.1962 -0.057,-0.2874 -0.0378,-0.0912 -0.0933,-0.174 -0.1632,-0.2439 -0.0699,-0.0696 -0.153,-0.1251 -0.2445,-0.1626 -0.0915,-0.0375 -0.1896,-0.057 -0.2883,-0.0567 z m -28.324654,10.00284 c 3.00753,-4.47447 5.56602,-5.95734 8.40804,-5.93988 2.98578,-6.90189 -3.51138,-20.24484 -9.23775,-23.79843 3.74724,10.38231 3.06753,20.42127 0.83283,29.74347 z m 22.645864,-4.52193 c 0.0519,-0.1713 0.1029,-0.34305 0.153,-0.51561 -4.770454,1.17252 -9.541924,2.69772 -14.313394,4.22799 4.70838,-1.39011 9.42294,-2.70177 14.160274,-3.71238 z m 8.54973,-2.81415 c 0.0984,0 0.1941,0.03 0.276,0.0834 0.0816,0.0543 0.1455,0.1317 0.183,0.222 0.0378,0.0906 0.0474,0.1899 0.027,0.2859 -0.018,0.096 -0.0663,0.1842 -0.1359,0.2535 -0.0693,0.0693 -0.1578,0.1164 -0.2541,0.1356 -0.0963,0.018 -0.1962,0.009 -0.2871,-0.027 -0.0906,-0.0375 -0.1683,-0.1008 -0.2229,-0.1824 -0.0546,-0.0813 -0.0837,-0.177 -0.0837,-0.2751 0,-0.1314 0.0522,-0.2571 0.1455,-0.35004 0.0933,-0.0927 0.2196,-0.1449 0.35118,-0.1449 z m -5.81946,-18.02781 c 3.05094,2.72343 5.31048,7.87647 5.57943,9.57174 0.1626,1.01679 0.1893,1.93566 0.30414,2.83077 0.38388,2.99052 1.09776,-0.2259 0.64875,-2.26872 -1.09458,-4.96632 -3.621,-8.20743 -6.53232,-10.13379 z M 85.751016,118.4422 c -0.80073,-1.27044 -1.56012,-2.72859 -1.35423,-4.11147 l 1.29009,3.91863 z m -6.69993,25.81452 c -0.2877,-0.2157 -1.39458,-0.2814 -1.50633,0.96933 -0.117,1.30548 0.153,3.44736 2.56887,4.48167 -2.52645,-0.2784 -5.8164,-4.79004 -3.66033,-6.76479 1.2363,-1.13229 3.42342,-0.43824 2.59779,1.31379 z m 0.64971,2.01804 c -0.3021,0.54246 -0.39726,0.79305 -0.1284,1.41795 0.2535,0.58983 1.14528,1.67166 3.15546,1.94493 -4.69596,0.1545 -4.81701,-3.52368 -3.02721,-3.36288 z m 28.921564,-5.18595 c 0.0912,0 0.1803,0.027 0.2559,0.0774 0.0756,0.0504 0.1347,0.1221 0.1695,0.2061 0.0348,0.084 0.0438,0.1761 0.027,0.2652 -0.018,0.0891 -0.0618,0.1707 -0.1263,0.2349 -0.0645,0.0642 -0.1467,0.1077 -0.2361,0.1254 -0.0894,0.018 -0.1821,0.009 -0.2661,-0.027 -0.084,-0.0351 -0.156,-0.0939 -0.2064,-0.1695 -0.0504,-0.0756 -0.0771,-0.1644 -0.0771,-0.2553 0,-0.0603 0.012,-0.1197 0.0351,-0.1755 0.024,-0.0555 0.057,-0.1062 0.0999,-0.1485 0.0429,-0.0426 0.0936,-0.0762 0.1494,-0.0993 0.0558,-0.024 0.1158,-0.0348 0.1761,-0.0345 z m -10.385014,13.63377 c 2.625724,-0.87243 5.015614,-2.40174 7.156114,-2.58636 1.59744,-0.1371 2.49747,0.54759 2.2761,2.3337 -1.14738,-1.0941 -3.42861,0.72183 -7.768594,2.46768 -5.01048,2.01294 -12.5019,2.32641 -16.46532,-1.63449 4.32243,2.05218 11.00994,0.67755 14.8017,-0.58053 z m 5.921914,-6.3843 c 2.82132,-0.32076 6.47439,0.0309 5.1273,4.23831 -0.2316,-2.28213 -3.0675,-2.99055 -7.01127,-1.59117 -4.311094,1.52511 -18.300604,7.32165 -23.035894,0.90021 7.71795,3.83517 17.742,-2.73171 24.919864,-3.54735 z m -28.180834,-1.02504 c 1.24977,1.79226 2.7054,2.85129 4.90593,3.12666 0.50301,0.0627 1.00887,0.1002 1.51569,0.1125 1.75878,0.0453 3.51027,-0.195 5.22255,-0.57951 1.75356,-0.39498 3.47409,-0.93948 5.17287,-1.5159 0.74484,-0.2517 1.48773,-0.51048 2.2305,-0.76827 0.75939,-0.2619 1.22286,-0.71463 1.26843,-0.8301 0.057,-0.1476 -0.51729,0.1032 -1.47432,0.32583 -1.03458,0.2463 -2.05875,0.50838 -3.08712,0.76413 -1.29636,0.32172 -2.59995,0.6342 -3.9159,0.86829 -2.08677,0.3702 -4.32348,0.56412 -6.39261,-0.006 2.17257,-0.93426 4.35657,-1.85619 6.55089,-2.75235 2.10018,-0.85485 4.21593,-1.67877 6.35541,-2.43261 3.68934,-1.29936 6.768214,-2.59554 10.635454,-3.21024 0.2577,0.5538 0.33726,1.26843 0.3021,1.80882 -0.1137,-0.35991 -0.2763,-0.67962 -0.51729,-0.88377 -6.023314,1.57362 -13.541554,3.99081 -19.155184,6.55542 5.84844,-2.2779 13.2219,-4.43421 19.012384,-5.96043 0.1956,0.1713 0.39837,0.51561 0.57006,0.84972 -0.2658,1.09521 -0.48108,1.56954 -1.06662,2.59047 0.62079,0.0474 1.79292,-0.46824 1.74951,-1.09728 0.93726,0.50427 0.38274,1.25811 0.35478,1.26015 0.64041,0.3507 1.44123,-0.45783 1.27875,-0.81873 1.73919,0.48567 4.35768,1.89228 3.11307,5.61807 -0.47799,-3.15039 -2.01222,-3.72372 -4.82631,-3.76395 -2.57508,-0.036 -5.00109,0.528 -7.429264,1.33332 -2.33196,0.77343 -4.59669,1.7376 -6.94413,2.46675 -0.31962,0.1032 -0.64245,0.1938 -0.96528,0.2835 -1.85181,0.51561 -3.77205,0.90954 -5.69016,1.056 -4.13415,0.32067 -6.98439,-0.44451 -8.77419,-4.40022 z m 25.231264,-25.80315 c -1.19847,-0.51516 -2.441734,-0.92004 -3.714184,-1.20963 h -0.006 c -1.23507,-0.2634 -2.49111,-0.41724 -3.75339,-0.45993 -1.26405,-0.027 -2.52801,0.0588 -3.77724,0.2526 -0.90906,0.1485 -1.80753,0.35514 -2.68992,0.61869 l 0.78627,2.38935 0.0942,0.2856 c 5.5785,0.267 11.31723,3.51237 13.983364,8.43534 0.57705,1.0596 0.99963,2.19576 1.2549,3.37416 0.2391,1.12182 0.32037,2.27133 0.2412,3.41544 -0.47055,-0.2457 -0.97092,-0.42966 -1.48878,-0.54762 -0.94401,-0.2037 -1.91976,-0.2139 -2.867824,-0.03 -1.04577,0.204 -2.05635,0.55791 -3.0003,1.05084 -0.77382,0.39186 -1.59732,0.97656 -2.41053,1.64172 l 0.76764,2.33568 -0.68691,0.2445 -0.68286,-2.07375 c -1.12872,0.9807 -2.20362,2.06241 -3.0561,2.94411 0.1251,-0.36297 0.2523,-0.73524 0.37863,-1.11576 3.05616,-5.01588 2.92473,-8.48283 2.36712,-10.18017 0.1107,2.6904 -1.13808,4.92609 -0.87837,3.66189 0.0765,-0.37641 0.2265,-1.62315 0.1335,-2.3718 -0.1437,-1.16946 -0.44793,-3.21852 -0.5235,-3.47736 -0.66213,-2.27481 -1.79499,-4.39395 -3.20715,-6.29967 l 1.04799,3.18333 2.2533,6.83904 c -0.003,0.65817 -0.0438,1.31562 -0.1179,1.96968 l -4.36173,-13.2615 -0.021,-0.0588 -0.83589,-2.53785 -0.51213,-1.55406 c -2.65263,-1.79019 -7.05684,-3.18852 -6.05949,-0.6012 0.2244,0.58161 -2.94237,-0.71565 -3.18963,-1.81908 1.72566,0.90645 3.56619,-1.11267 4.11966,-1.67469 1.11942,-1.13433 2.28435,-1.01163 3.49377,-0.87138 l -0.2928,-0.88581 0.69318,-0.2238 1.20531,3.65565 0.61347,1.8624 c 0.98007,-0.31797 1.97859,-0.5766 2.98992,-0.77445 1.20585,-0.2163 2.42634,-0.34215 3.65109,-0.37638 1.20816,-0.018 2.41608,0.0552 3.61266,0.2226 0.42213,0.0558 0.84114,0.1311 1.25811,0.2145 1.46112,0.30651 2.889244,0.7527 4.264504,1.33233 1.34667,0.59277 2.63214,1.31493 3.83826,2.15631 0.33003,0.2268 0.64872,0.47022 0.96321,0.72186 h 0.006 c 2.57508,1.89333 4.71147,4.41975 5.95914,7.37115 0.86529,2.02476 1.26198,4.21776 1.16079,6.41619 -0.027,0.55278 -0.1728,1.14054 -0.50793,1.59117 -0.2298,0.30939 -0.56388,0.56307 -0.96012,0.58887 -0.39624,0.027 -0.76041,-0.2064 -1.01487,-0.50529 -0.43872,-0.52182 -0.65184,-1.29732 -0.75321,-1.95939 -1.00662,-6.50796 -3.94485,-11.35878 -9.7674,-13.90593 z m -21.173674,7.74549 c 0.1158,0.37845 0.0684,0.85485 0.34971,1.13433 0.2814,0.2796 0.75837,0.2319 1.13802,0.34752 -0.37965,0.1164 -0.85767,0.069 -1.13802,0.34854 -0.2805,0.2796 -0.2337,0.7569 -0.34971,1.13433 -0.117,-0.37845 -0.0693,-0.85485 -0.34965,-1.13433 -0.2805,-0.2796 -0.75942,-0.2319 -1.13808,-0.34854 0.37971,-0.1155 0.85764,-0.0681 1.13808,-0.34752 0.2802,-0.2796 0.2328,-0.75588 0.34965,-1.13433 z m -0.53379,15.37962 c 0.0909,-2.4e-4 0.1803,0.027 0.2562,0.0768 0.0759,0.0504 0.135,0.1218 0.1698,0.2058 0.0351,0.084 0.0444,0.1761 0.027,0.2652 -0.018,0.0891 -0.0615,0.171 -0.1257,0.2352 -0.0645,0.0642 -0.1464,0.108 -0.2358,0.126 -0.0894,0.018 -0.1821,0.009 -0.2661,-0.027 -0.0843,-0.0348 -0.1563,-0.0936 -0.2067,-0.1689 -0.0507,-0.0756 -0.0777,-0.1641 -0.0777,-0.255 0,-0.1215 0.0483,-0.2382 0.1344,-0.32415 0.0861,-0.0861 0.2031,-0.1344 0.32493,-0.1347 z m 1.38009,-2.72868 c 0.1386,0 0.2739,0.0411 0.3891,0.1176 0.1152,0.0768 0.2049,0.1857 0.258,0.31329 0.0531,0.1275 0.0669,0.2679 0.0399,0.40338 -0.027,0.1353 -0.0936,0.2598 -0.1917,0.35742 -0.0981,0.0978 -0.2229,0.1641 -0.35871,0.1911 -0.1359,0.027 -0.2766,0.012 -0.40464,-0.0396 -0.1278,-0.0528 -0.2373,-0.1422 -0.31434,-0.2571 -0.0771,-0.1149 -0.1179,-0.2499 -0.1179,-0.38781 2.4e-4,-0.1851 0.0741,-0.36252 0.2055,-0.49341 0.1314,-0.1308 0.30933,-0.2046 0.495,-0.2049 z m 30.633814,9.43158 c -2.07588,3.30915 -5.01333,5.9952 -8.49954,7.77201 -3.486154,1.77681 -7.390624,2.57784 -11.297374,2.31783 -3.90684,-0.2601 -7.66977,-1.57131 -10.88802,-3.79431 -3.21828,-2.22297 -5.77143,-5.27439 -7.3875,-8.82927 -1.01802,-2.23671 -1.68945,-4.37649 -1.92948,-6.73797 0,-0.0618 0,-0.1236 0.006,-0.1857 -0.1056,-0.8733 -0.1575,-1.75212 -0.1551,-2.63169 0.018,-1.43232 0.1662,-2.86011 0.44076,-4.26615 0.30036,-1.43727 0.73575,-2.84322 1.30044,-4.1991 0.59169,-1.35906 1.30791,-2.66082 2.13951,-3.88875 1.06563,-1.50249 2.21709,-2.85648 3.60033,-4.0713 0.2991,0.7497 0.48624,1.54686 0.7242,2.31204 l -0.015,0.015 c -5.23491,4.90236 -6.89127,11.73426 -5.6322,18.80427 0.2937,1.64997 0.97353,3.30819 1.90881,4.92411 1.76394,3.04824 3.18234,4.75185 5.99019,6.85656 2.23257,1.67187 4.77606,2.88528 7.48293,3.56964 2.70675,0.68439 5.52297,0.82623 8.28522,0.41712 2.762194,-0.40902 5.415364,-1.3608 7.805674,-2.80002 2.39028,-1.43916 4.47,-3.33717 6.11853,-5.58387 z m 0.46656,-11.20212 c -0.2991,0 -0.59157,0.0885 -0.84033,0.2541 -0.2487,0.1656 -0.44259,0.4011 -0.55704,0.67659 -0.1146,0.2754 -0.1446,0.57867 -0.0861,0.87108 0.0585,0.2925 0.2025,0.56109 0.41403,0.77193 0.2115,0.2109 0.48099,0.35448 0.77436,0.41265 0.2934,0.0582 0.59754,0.027 0.87393,-0.0858 0.2763,-0.114 0.51261,-0.30735 0.67881,-0.5553 0.1662,-0.2481 0.255,-0.53943 0.255,-0.83757 0,-0.3999 -0.1593,-0.78336 -0.44307,-1.06608 -0.2835,-0.2829 -0.66831,-0.44157 -1.0695,-0.44157 z"
       fill="url(#paint0_linear_47_2775)"
       id="path1"
       style="fill:url(#paint0_linear_47_2775);stroke-width:0.793749" />
  </g>
</svg>
